<svg width="29" height="27" viewBox="0 0 29 27" fill="none" xmlns="http://www.w3.org/2000/svg">
<path d="M21.1602 8.57058C19.6012 5.07909 21.6792 1.19525 21.7124 1.13354C21.917 0.763281 21.7819 0.296883 21.4116 0.0922652C21.0413 -0.113002 20.5749 0.0221106 20.3703 0.39302C20.2677 0.578151 17.8811 4.9862 19.7604 9.19547C20.0819 9.91521 20.5204 10.5187 20.9439 11.1026C21.2817 11.5684 21.6299 12.0478 21.9326 12.6168C14.2786 14.9313 7.83344 13.1618 6.21599 12.6337C6.52064 12.0575 6.87141 11.5729 7.21309 11.1026C7.63661 10.5193 8.07508 9.91521 8.39662 9.19547C10.2765 4.9862 7.8893 0.578151 7.78667 0.39302C7.5827 0.0227602 7.1176 -0.111703 6.74669 0.0922652C6.37643 0.296233 6.24132 0.761982 6.44464 1.13289C6.46542 1.17187 8.56097 5.06869 6.99678 8.57058C6.74085 9.14416 6.36799 9.65797 5.97239 10.2023C4.30687 12.4973 2.23276 15.3535 5.72036 25.863C5.82754 26.1852 6.12699 26.3885 6.44789 26.3885C6.52843 26.3885 6.60963 26.3762 6.68953 26.3496C7.09162 26.2158 7.30923 25.7825 7.17541 25.3804C5.79506 21.2205 5.32087 18.4007 5.3475 16.3668C6.64341 17.0333 9.72307 18.6917 12.2577 20.6495C12.6968 20.9886 12.969 21.1256 13.312 21.2081V25.2856C13.312 25.7091 13.655 26.0521 14.0785 26.0521C14.502 26.0521 14.845 25.7091 14.845 25.2856V21.2081C15.188 21.1256 15.4602 20.9886 15.8993 20.6495C18.4346 18.6917 21.5136 17.0333 22.8088 16.3668C22.8361 18.4007 22.3613 21.2205 20.9809 25.3804C20.8471 25.7825 21.0654 26.2158 21.4675 26.3496C21.5474 26.3762 21.6286 26.3885 21.7085 26.3885C22.0293 26.3885 22.3288 26.1852 22.436 25.863C25.9236 15.3535 23.8501 12.4973 22.1846 10.2017C21.789 9.65797 21.4161 9.14416 21.1602 8.57058ZM14.9626 19.4361C14.6086 19.7096 14.5943 19.7174 14.0895 19.7843L14.0785 19.783L14.0675 19.7843C13.5627 19.7174 13.5484 19.7096 13.1944 19.4361C10.0355 16.9956 6.1926 15.0664 5.4982 14.7253C5.54042 14.4921 5.59174 14.2719 5.6489 14.0634C6.69862 14.422 9.77243 15.3314 13.9772 15.3314C16.4832 15.3314 19.3908 15.0014 22.5029 14.0433C22.5627 14.2576 22.6153 14.4843 22.6588 14.7253C21.9644 15.0664 18.1228 16.9956 14.9626 19.4361Z" fill="#1899D5"/>
<path d="M6.03719 6.5075C6.18919 6.3555 6.26325 6.15543 6.26065 5.95601C6.26325 5.75659 6.18919 5.55652 6.03719 5.40451L4.00791 3.37523C3.70845 3.07642 3.22256 3.07577 2.92376 3.37523C2.6243 3.67468 2.6243 4.15992 2.92376 4.45938L3.64804 5.18366H0.766504C0.342978 5.18366 0 5.52663 0 5.94951C0 6.37304 0.342978 6.71601 0.766504 6.71601H3.66103L2.92376 7.45329C2.6243 7.75209 2.6243 8.23798 2.92376 8.53679C3.07381 8.68684 3.26933 8.76154 3.46551 8.76154C3.66168 8.76154 3.85785 8.68684 4.00791 8.53679L6.03719 6.5075Z" fill="#1899D5"/>
<path d="M27.3909 5.18358H24.5093L25.2336 4.45994C25.5324 4.16049 25.5324 3.67525 25.2336 3.3758C24.9341 3.07634 24.4496 3.07569 24.1495 3.37515L22.1195 5.40443C21.9682 5.55643 21.8935 5.75716 21.8961 5.95593C21.8935 6.15535 21.9682 6.35542 22.1195 6.50807L24.1495 8.53735C24.2989 8.68676 24.495 8.76146 24.6912 8.76146C24.8874 8.76146 25.0836 8.68676 25.2336 8.53735C25.5324 8.2379 25.5324 7.75266 25.2336 7.45321L24.4963 6.71658H27.3909C27.8137 6.71658 28.1567 6.37296 28.1567 5.95008C28.1567 5.52655 27.8137 5.18358 27.3909 5.18358Z" fill="#1899D5"/>
<path d="M14.0789 9.30389C14.4972 9.30389 14.8356 8.90894 14.8356 8.42111C14.8356 7.93327 14.4972 7.53833 14.0789 7.53833C13.6605 7.53833 13.3208 7.93327 13.3208 8.42111C13.3208 8.90894 13.6605 9.30389 14.0789 9.30389Z" fill="#1899D5"/>
</svg>
