<svg width="36" height="29" viewBox="0 0 36 29" fill="none" xmlns="http://www.w3.org/2000/svg">
<path d="M30.8801 24.5834L26.027 22.3689C25.654 21.1465 24.5097 20.2708 23.2035 20.2708C23.0602 20.2708 22.9156 20.2816 22.7743 20.3021C21.9926 20.4147 21.3017 20.8253 20.829 21.458C20.3569 22.0906 20.1593 22.8697 20.2731 23.6508C20.483 25.0945 21.7386 26.1826 23.1945 26.1826C23.3372 26.1826 23.4811 26.1723 23.6225 26.1512C23.8329 26.1212 24.0414 26.0662 24.2455 25.9868L29.2074 28.2513C29.4729 28.3722 29.7543 28.4336 30.0435 28.4336C30.2117 28.4336 30.3806 28.4118 30.543 28.3702C31.1379 28.2187 31.6247 27.8118 31.8787 27.2547C32.1026 26.7647 32.1217 26.2165 31.933 25.7118C31.745 25.2077 31.3708 24.8067 30.8801 24.5834ZM30.4241 26.5913C30.3716 26.7065 30.2712 26.7903 30.1471 26.8216C30.055 26.8459 29.959 26.837 29.8707 26.7967L24.5749 24.38C24.4687 24.3314 24.3562 24.3077 24.2429 24.3077C24.1092 24.3077 23.9755 24.3416 23.8559 24.4075C23.7011 24.4932 23.5463 24.5476 23.3928 24.57C22.6425 24.6794 21.9612 24.1484 21.855 23.4205C21.8032 23.0623 21.8934 22.7047 22.1096 22.4143C22.3265 22.1245 22.6438 21.9358 23.0045 21.8834C23.744 21.7746 24.4259 22.2953 24.5391 23.0137C24.5436 23.0578 24.5519 23.1013 24.5621 23.1416C24.6248 23.3706 24.786 23.5599 25.0022 23.6578L30.2174 26.038C30.3192 26.0847 30.3966 26.1679 30.4356 26.2721C30.4746 26.3758 30.4708 26.489 30.4241 26.5913Z" fill="#1899D5"/>
<path d="M34.5625 20.4619L30.4623 17.0492C30.4456 16.4211 30.2301 15.816 29.8347 15.3113C29.3486 14.6895 28.6482 14.2942 27.8646 14.1989C26.2296 13.9967 24.7666 15.1744 24.5722 16.7723C24.475 17.5565 24.6899 18.3318 25.1773 18.9535C25.6641 19.5753 26.3633 19.9706 27.1475 20.0672C27.3643 20.0928 27.5761 20.0934 27.7916 20.071L31.9834 23.5598C32.3371 23.8547 32.7849 24.0197 33.2384 24.0255H33.2736C33.8755 24.0255 34.4397 23.7607 34.8216 23.3001C35.167 22.8862 35.3289 22.363 35.2803 21.8263C35.231 21.2903 34.9758 20.8054 34.5625 20.4619ZM33.5922 22.2785C33.5135 22.3732 33.3977 22.4269 33.2736 22.4269V23.2265L33.2621 22.4269C33.1968 22.4263 33.099 22.409 33.0062 22.331L28.5311 18.6068C28.3859 18.4859 28.2049 18.4213 28.02 18.4213C27.956 18.4213 27.8908 18.429 27.8275 18.445C27.6599 18.4866 27.4987 18.4987 27.3413 18.4802C26.9812 18.4354 26.6594 18.2544 26.4362 17.9684C26.2123 17.6832 26.1144 17.3275 26.1592 16.9667C26.2481 16.2324 26.914 15.6938 27.6714 15.7853C28.0309 15.8294 28.352 16.0104 28.5759 16.2957C28.7966 16.5784 28.8957 16.9283 28.858 17.2642C28.8497 17.3121 28.8452 17.362 28.8452 17.4087C28.8452 17.6461 28.9507 17.8712 29.133 18.0228L33.5397 21.6907C33.6254 21.7617 33.6779 21.8621 33.6881 21.9728C33.6939 22.0367 33.6894 22.1615 33.5922 22.2785Z" fill="#1899D5"/>
<path d="M19.1176 17.0327C20.2281 15.8998 20.9093 14.4413 21.1569 12.665C22.3313 13.5516 23.2646 14.3141 23.839 14.7957C24.1678 14.2897 24.5669 13.9059 24.9392 13.6277C24.2209 13.02 22.9153 11.9486 21.2592 10.7364C21.2407 9.96238 21.1562 9.14041 21.0053 8.2711C20.9554 8.04721 19.7451 2.75714 16.2532 0.755614C14.7774 -0.0900293 13.129 -0.230117 11.3507 0.341748C11.1863 0.39548 7.83766 1.51618 6.00372 4.09341C5.7018 4.11132 5.40691 4.14586 5.11842 4.19896C3.17894 4.55461 1.70962 5.66188 0.734121 7.52332C0.664397 7.67236 -0.94949 11.2072 0.841586 14.5296C2.25398 17.1478 5.32439 18.818 9.96392 19.4928C10.1034 19.5146 12.1036 19.8037 14.3892 19.3751C15.6858 20.1875 17.2024 21.0734 18.9756 22.0374C19.1438 21.4675 19.4163 20.9967 19.7099 20.6167C18.5137 19.9649 17.4333 19.3495 16.4706 18.7726C17.4193 18.3856 18.3385 17.8284 19.1176 17.0327ZM11.8439 1.86224C13.1891 1.42919 14.3706 1.52066 15.4548 2.1405C18.3334 3.78765 19.4342 8.5711 19.4368 8.58134C19.4944 8.91076 19.5404 9.23188 19.5769 9.54532C16.1553 7.20668 11.803 4.74396 8.0142 4.19128C9.6025 2.61769 11.8177 1.8712 11.8439 1.86224ZM14.6834 17.6653C13.7329 17.9416 12.7247 18.0248 11.8887 18.0248C10.8595 18.0248 10.0944 17.9064 10.0272 17.8962L10.0292 17.8841C6.01843 17.2732 3.40218 15.8953 2.2559 13.7838C0.842226 11.1797 2.16634 8.23335 2.16634 8.23335C2.84631 6.93674 3.81349 6.14867 5.1165 5.83331C4.54591 7.59049 4.82417 9.4999 5.94679 11.5149C5.95894 11.536 5.9711 11.5558 5.98453 11.5763C6.07409 11.7074 6.16044 11.8584 6.25959 12.0304C6.80459 12.9746 7.63104 14.3972 10.349 16.5574C10.6887 16.6022 11.8477 16.7275 13.0823 16.59C9.15665 13.8401 8.19203 12.1795 7.64383 11.2315C7.53061 11.0345 7.42955 10.8611 7.3272 10.7076C6.39072 9.01439 6.18795 7.45935 6.72399 6.08534C6.77772 5.94653 6.83913 5.81093 6.90566 5.67851C10.8511 5.84931 15.9634 8.92612 19.6556 11.5616C19.5711 13.3993 19.0108 14.8552 17.9809 15.9088C17.0649 16.8452 15.8687 17.3762 14.6898 17.6691L14.6834 17.6653Z" fill="#1899D5"/>
</svg>
