<svg width="19" height="29" viewBox="0 0 19 29" fill="none" xmlns="http://www.w3.org/2000/svg">
<path d="M11.952 21.654H6.96686C5.68894 21.654 4.55681 20.8414 4.148 19.6305L3.8825 18.847C3.41351 17.458 2.79069 16.2663 2.03138 15.3054C0.649871 13.5567 -0.0697302 11.3656 0.00533169 9.13606C0.169723 4.24091 4.12815 0.231611 9.01772 0.00952732C11.6294 -0.120745 14.1077 0.816598 15.9935 2.61808C17.88 4.42081 18.9191 6.85009 18.9191 9.45864C18.9191 11.5585 18.2417 13.548 16.96 15.2117C16.1374 16.2806 15.4904 17.5027 15.0369 18.8445L14.7708 19.6305C14.362 20.8414 13.2293 21.654 11.952 21.654ZM9.46189 1.86002C9.34278 1.86002 9.22306 1.8625 9.10271 1.86808C5.17592 2.04736 1.99726 5.26634 1.86513 9.19748C1.80496 10.989 2.3825 12.7483 3.49168 14.1516C4.38312 15.2806 5.10768 16.659 5.64552 18.2508L5.91041 19.0349C6.06363 19.4884 6.48857 19.793 6.96686 19.793H11.952C12.4302 19.793 12.8546 19.4884 13.0078 19.0349L13.2739 18.2483C13.7931 16.7117 14.5369 15.3085 15.4855 14.0765C16.514 12.7409 17.058 11.1441 17.058 9.45864C17.058 7.36311 16.223 5.41212 14.7075 3.96424C13.2801 2.59947 11.429 1.86002 9.46189 1.86002Z" fill="#1899D5"/>
<path d="M11.5916 28.2266H7.32734C5.88752 28.2266 4.71631 27.056 4.71631 25.6156V24.9022C4.71631 23.4624 5.88752 22.2905 7.32734 22.2905H11.5916C13.0314 22.2905 14.2026 23.4624 14.2026 24.9022V25.6156C14.2026 27.056 13.0314 28.2266 11.5916 28.2266ZM7.32734 24.1516C6.91357 24.1516 6.57735 24.4884 6.57735 24.9022V25.6156C6.57735 26.0294 6.91357 26.3656 7.32734 26.3656H11.5916C12.0054 26.3656 12.3416 26.0294 12.3416 25.6156V24.9022C12.3416 24.4884 12.0054 24.1516 11.5916 24.1516H7.32734Z" fill="#1899D5"/>
<path d="M6.65498 14.4406C6.46205 14.4406 6.27036 14.3805 6.10783 14.2632C5.82185 14.0548 5.67855 13.7018 5.7381 13.3525L6.19096 10.7123L4.27285 8.84262C4.01912 8.59573 3.92793 8.22538 4.03711 7.88853C4.14692 7.55168 4.43786 7.30665 4.78835 7.25578L7.43909 6.87054L8.62457 4.46856C8.78152 4.15094 9.10534 3.94995 9.45894 3.94995C9.81316 3.94995 10.137 4.15094 10.2939 4.46856L11.4788 6.87054L14.1295 7.25578C14.48 7.30665 14.771 7.55168 14.8808 7.88853C14.99 8.22538 14.8988 8.59573 14.645 8.84262L12.7269 10.7123L13.1798 13.3525C13.24 13.7018 13.0967 14.0548 12.8094 14.2632C12.5228 14.471 12.1438 14.4996 11.8299 14.3333L9.45894 13.0864L7.0886 14.3333C6.95212 14.4053 6.80324 14.4406 6.65498 14.4406ZM6.92172 8.82587L7.83984 9.72103C8.05944 9.93505 8.15994 10.2427 8.10783 10.5449L7.8907 11.8091L9.02594 11.2123C9.29765 11.069 9.62085 11.069 9.89256 11.2123L11.0272 11.8091L10.8101 10.5449C10.7586 10.2427 10.8584 9.93505 11.078 9.72103L11.9962 8.82587L10.7269 8.64163C10.4242 8.59759 10.1624 8.40714 10.0266 8.13295L9.45894 6.98282L8.89132 8.13295C8.75609 8.40714 8.49368 8.59759 8.19095 8.64163L6.92172 8.82587Z" fill="#1899D5"/>
</svg>
