<svg width="29" height="16" viewBox="0 0 29 16" fill="none" xmlns="http://www.w3.org/2000/svg">
<path d="M26.1756 4.86211H24.9237V1.98439C24.9237 0.88827 24.0323 -0.00317383 22.9362 -0.00317383H1.98757C0.891444 -0.00317383 0 0.88827 0 1.98439V13.9568C0 15.0535 0.891444 15.945 1.98757 15.945H22.9362C24.0323 15.945 24.9237 15.0535 24.9237 13.9568V11.079H26.1756C27.2621 11.079 28.1458 10.1779 28.1458 9.0696V6.87156C28.1458 5.76321 27.2621 4.86211 26.1756 4.86211ZM23.3507 13.9568C23.3507 14.1859 23.1647 14.3719 22.9362 14.3719H1.98757C1.75907 14.3719 1.57306 14.1859 1.57306 13.9568V1.98439C1.57306 1.7559 1.75907 1.56989 1.98757 1.56989H22.9362C23.1647 1.56989 23.3507 1.7559 23.3507 1.98439V13.9568ZM26.5727 9.0696C26.5727 9.31032 26.3945 9.50599 26.1756 9.50599H24.9237V6.43517H26.1756C26.3945 6.43517 26.5727 6.63084 26.5727 6.87156V9.0696Z" fill="#1899D5"/>
<path d="M3.36621 12.99H8.348V2.95044H3.36621V12.99ZM4.93927 4.52414H6.77494V11.4169H4.93927V4.52414Z" fill="#1899D5"/>
<path d="M9.97119 12.99H14.953V2.95044H9.97119V12.99ZM11.5443 4.52414H13.3799V11.4169H11.5443V4.52414Z" fill="#1899D5"/>
<path d="M16.6548 12.99H21.6366V2.95044H16.6548V12.99ZM18.2278 4.52414H20.0635V11.4169H18.2278V4.52414Z" fill="#1899D5"/>
</svg>
