<svg width="25" height="29" viewBox="0 0 25 29" fill="none" xmlns="http://www.w3.org/2000/svg">
<path d="M8.0515 16.5302C7.30976 16.7712 6.52608 17.0936 5.69733 17.5192C5.33241 17.7064 5.18844 18.1539 5.37623 18.5188C5.56276 18.8831 6.01031 19.0277 6.37586 18.8399C13.6205 15.12 16.7239 19.9742 16.8548 20.1857C16.9943 20.4154 17.2391 20.5425 17.4895 20.5425C17.6203 20.5425 17.7524 20.5081 17.8725 20.4355C18.2237 20.2239 18.3364 19.7676 18.1242 19.4164C18.0929 19.3639 15.3938 15.0505 9.56942 16.1421C9.21325 15.5381 6.61935 11.6197 0.50389 13.6947C0.115805 13.8268 -0.0920078 14.2487 0.0394402 14.6367C0.170888 15.0248 0.591521 15.2326 0.980858 15.1012C5.3224 13.6284 7.39051 15.6483 8.0515 16.5302Z" fill="#1899D5"/>
<path d="M19.5075 2.4207C19.4862 2.38878 19.4599 2.36061 19.4342 2.33307C19.254 2.05014 17.7041 -0.0611621 12.0081 -0.00169751C11.8923 -0.000445629 11.7783 0.0277218 11.6763 0.080301C10.5653 0.653664 8.58666 2.52523 9.05048 5.50409C9.06863 5.62177 9.11495 5.73256 9.18506 5.82896L9.95622 6.88179C10.0971 7.07396 10.3199 7.18537 10.5546 7.18537C10.5834 7.18537 10.6116 7.1835 10.6404 7.18037L14.7284 6.70528C15.0082 6.67335 15.2454 6.48494 15.3406 6.21954C15.365 6.15257 15.3919 6.07933 15.4194 6.0061C15.7969 6.35725 16.471 7.09899 16.6895 8.07421C16.6964 8.10864 16.7033 8.14432 16.7095 8.17875C16.722 8.24447 16.7345 8.30957 16.7421 8.37779C16.7477 8.42662 16.759 8.47419 16.7734 8.51926C16.9805 9.67788 17.1364 11.0074 16.9937 11.4837C16.9242 11.7147 16.7515 12.059 16.5505 12.4577C16.1656 13.2238 15.6567 14.2435 15.3612 15.4841C15.7218 15.6487 16.2156 15.9016 16.7208 16.239C16.9461 14.9865 17.465 13.9443 17.8775 13.1256C18.1091 12.6642 18.3094 12.2661 18.4158 11.9106C18.7038 10.9498 18.3714 8.92236 18.1592 7.85013C18.1511 7.80756 18.1385 7.76938 18.1266 7.72994C17.788 6.26461 16.7546 5.1254 16.1193 4.6622C16.1055 4.64718 16.0905 4.63215 16.0748 4.61901L16.0685 4.62527C16.041 4.60649 16.0203 4.59648 15.9947 4.58083C16.0905 4.36863 16.1768 4.19462 16.2376 4.10511C16.4691 3.76648 16.3828 3.30453 16.0441 3.07231C15.7055 2.84133 15.2436 2.92771 15.012 3.26635C14.7303 3.67822 14.3316 4.6791 14.1037 5.28313L10.8983 5.65557L10.4945 5.10349C10.2404 2.92333 11.7458 1.78286 12.2203 1.48116H12.2785C16.7646 1.48116 18.0628 2.98154 18.1805 3.13114L19.6953 5.82958C21.324 9.19903 23.7182 15.6325 23.2556 23.6689C21.3715 24.6767 12.0018 29.2455 4.77967 24.857C4.96746 24.6335 5.08576 24.509 5.09139 24.504C5.37807 24.2116 5.37307 23.7416 5.08075 23.4549C4.78718 23.1676 4.31773 23.1719 4.03042 23.4649C3.9672 23.53 2.45242 25.0905 1.25624 27.7019C1.08536 28.075 1.24873 28.515 1.62179 28.6859C1.72194 28.7322 1.8271 28.7541 1.93101 28.7541C2.21143 28.7541 2.48121 28.5932 2.6064 28.3203C3.01827 27.4215 3.47396 26.6566 3.88207 26.0525C6.47472 27.6675 9.27457 28.2446 11.9486 28.2446C18.3445 28.2446 24.013 24.959 24.3485 24.7612C24.5595 24.6367 24.6953 24.4163 24.7116 24.1728C25.5835 11.5294 19.756 2.78688 19.5075 2.4207Z" fill="#1899D5"/>
</svg>
