<svg width="33" height="27" viewBox="0 0 33 27" fill="none" xmlns="http://www.w3.org/2000/svg">
<path d="M30.3399 2.5252L30.1403 2.32491C28.6381 0.824103 26.6337 -0.00317383 24.4968 -0.00317383C22.3591 -0.00317383 20.3554 0.824103 18.8532 2.32491L17.0957 4.08314L15.3382 2.32491C13.8367 0.824103 11.8323 -0.00317383 9.69534 -0.00317383C7.55768 -0.00317383 5.55402 0.824103 4.05251 2.32491L3.85221 2.5252C1.32172 5.0557 0.849893 8.87683 2.43533 11.8897H4.53632C2.7118 9.45938 2.89728 5.98876 5.10617 3.77987L5.30576 3.57958C6.47298 2.41307 8.03161 1.76986 9.69534 1.76986C11.3584 1.76986 12.917 2.41236 14.0842 3.57887L15.8072 5.30254L15.8417 5.3371L15.8453 5.33357C16.1513 5.60016 16.621 5.92741 17.0879 5.92741C17.5957 5.92741 17.9709 5.68832 18.3497 5.3371L18.3553 5.33216L18.7926 4.89419L18.8913 4.79545L20.1072 3.57887C21.2744 2.41236 22.833 1.76986 24.4968 1.76986C26.1605 1.76986 27.7191 2.41236 28.8863 3.57887L29.0859 3.77917C31.5057 6.19964 31.5057 10.1378 29.0859 12.5576L17.0964 24.5464L9.70874 17.1595H7.20081L15.7416 25.7002L15.7585 25.7172L15.7606 25.7158C16.0942 26.0113 16.6112 26.3886 17.0879 26.3886C17.6176 26.3886 18.002 26.129 18.3983 25.7531C18.4103 25.7411 18.423 25.7306 18.4357 25.7186L30.3399 13.8116C33.4515 10.6999 33.4515 5.63684 30.3399 2.5252Z" fill="#1899D5"/>
<path d="M14.3134 18.4698C13.9777 18.4698 13.6681 18.2801 13.5178 17.9747L11.3111 13.4899L10.1495 15.0627C9.98233 15.2891 9.71786 15.4224 9.43646 15.4224H0.887224C0.397065 15.4224 0 15.0246 0 14.5351C0 14.0457 0.397065 13.6486 0.887224 13.6486H8.98861L10.7511 11.2648C10.9351 11.0159 11.2363 10.884 11.5431 10.9087C11.8513 10.9362 12.1228 11.1224 12.2596 11.4002L14.1222 15.1854L16.2063 8.39581C16.3177 8.03189 16.6506 7.77941 17.0322 7.77024C17.4172 7.75472 17.7586 7.99663 17.8877 8.3549L19.8137 13.6924H22.589C23.0784 13.6924 23.4755 14.0894 23.4755 14.5789C23.4755 15.0683 23.0784 15.4654 22.589 15.4654H19.191C18.8172 15.4654 18.4836 15.2312 18.3567 14.88L17.1217 11.4567L15.1611 17.8435C15.0546 18.1905 14.7464 18.4381 14.3839 18.467C14.3606 18.4691 14.3366 18.4698 14.3134 18.4698Z" fill="#1899D5"/>
</svg>
