<svg width="29" height="31" viewBox="0 0 29 31" fill="none" xmlns="http://www.w3.org/2000/svg">
<path d="M23.8552 16.8779C23.9448 17.2459 24.2732 17.4932 24.6367 17.4932C24.699 17.4932 24.7626 17.4861 24.8255 17.4698C25.2572 17.3653 25.5226 16.9311 25.4181 16.4995C24.7684 13.8145 23.3126 12.7585 22.2067 12.345C21.7894 12.1906 21.3272 12.4015 21.1715 12.8175C21.0164 13.2336 21.2279 13.6963 21.644 13.8515C22.7227 14.2545 23.4671 15.2728 23.8552 16.8779Z" fill="#1899D5"/>
<path d="M28.2649 15.2392C27.6301 12.6184 26.3976 10.8024 24.6004 9.8418C22.1549 8.53334 19.5327 9.30634 19.0622 9.46276C16.9535 9.85673 16.1078 9.85738 16.0747 9.85803C16.0195 9.85608 15.965 9.86062 15.9131 9.86971C15.8728 9.86387 15.8326 9.85803 15.7911 9.85803H15.782C15.7664 9.85932 14.9343 9.86322 12.7938 9.46276C12.3233 9.3057 9.70115 8.53334 7.25493 9.8418C5.91467 10.5583 4.89179 11.7558 4.19083 13.4193C4.16941 13.4173 4.14799 13.4128 4.12592 13.4128H2.86355C1.28444 13.4128 0 14.622 0 16.1082V21.9807C0 23.467 1.28444 24.6762 2.86355 24.6762H15.6651C16.1091 24.6762 16.4693 24.316 16.4693 23.872V18.0002C16.4693 17.5562 16.1091 17.196 15.6651 17.196H5.02809C5.0495 16.2309 5.15335 15.6267 5.15465 15.6169C5.67453 13.468 6.63185 12.0044 8.00067 11.2664C9.99905 10.189 12.2902 10.9899 12.3116 10.9971C12.3525 11.0127 12.3959 11.0243 12.4394 11.0321C14.7876 11.4748 15.7138 11.4683 15.8138 11.465C15.8527 11.4644 15.891 11.4579 15.928 11.4514C15.9656 11.4579 16.0026 11.4644 16.0416 11.465C16.1409 11.4683 17.0664 11.4748 19.4166 11.0321C19.4588 11.025 19.5022 11.0127 19.5425 10.9984C19.5659 10.9899 21.8557 10.189 23.8547 11.2664C25.2235 12.0044 26.1815 13.468 26.6929 15.5773C26.7072 15.6507 28.0059 22.988 22.3664 28.044C22.3405 28.0674 22.3165 28.0921 22.2938 28.1187C22.2801 28.1342 20.9217 29.6705 18.528 28.6061C18.3729 28.5451 16.9807 28.0057 15.9358 28.0057L15.928 28.007L15.9202 28.0057C14.8753 28.0057 13.4831 28.5451 13.2975 28.6191C10.9713 29.6549 9.61483 28.1764 9.56225 28.1187C9.53954 28.0921 9.51552 28.0674 9.48956 28.044C8.77952 27.4073 8.1811 26.7356 7.67551 26.0456H5.72515C6.40339 27.1334 7.26856 28.2069 8.38036 29.209C8.91971 29.8094 10.1139 30.5967 11.7067 30.5967C12.3797 30.5967 13.1242 30.4558 13.9199 30.1015C14.2632 29.9658 15.2932 29.614 15.9202 29.614L15.928 29.6127L15.9358 29.614C16.5628 29.614 17.5928 29.9658 17.905 30.0885C18.7156 30.4487 19.4711 30.5915 20.1519 30.5915C21.7486 30.5915 22.9376 29.8075 23.4756 29.209C29.7648 23.5365 28.3369 15.6124 28.2649 15.2392ZM14.861 23.0679H13.0275V21.5212C13.0275 21.0766 12.6672 20.7171 12.2233 20.7171C11.7794 20.7171 11.4191 21.0766 11.4191 21.5212V23.0679H9.31173V21.5212C9.31173 21.0766 8.95151 20.7171 8.50757 20.7171C8.06363 20.7171 7.70341 21.0766 7.70341 21.5212V23.0679H5.59534V21.5212C5.59534 21.0766 5.23578 20.7171 4.79119 20.7171C4.34725 20.7171 3.98768 21.0766 3.98768 21.5212V23.0679H2.86355C2.18271 23.0679 1.60831 22.5701 1.60831 21.9807V18.5311C1.98735 18.7063 2.41377 18.8037 2.86355 18.8037H14.861V23.0679ZM2.86355 17.196C2.18271 17.196 1.60831 16.6982 1.60831 16.1082C1.60831 15.5189 2.18271 15.0211 2.86355 15.0211H3.65472C3.63201 15.1074 3.60475 15.1886 3.58333 15.2775C3.56451 15.3729 3.43795 16.094 3.40874 17.196H2.86355Z" fill="#1899D5"/>
<path d="M12.3887 4.2471C12.4036 4.25359 13.9185 4.90327 15.0718 7.6792C15.1445 7.85314 15.2743 7.9836 15.4275 8.06798C15.5651 8.21206 15.7559 8.30617 15.9682 8.31785C15.9682 8.31785 16.0564 8.32305 16.2128 8.32305C17.0754 8.32305 20.0091 8.17117 21.5609 6.21238C22.7759 4.67871 23.5229 1.3459 23.6034 0.97141C23.6605 0.709199 23.5826 0.435955 23.3964 0.243191C23.2108 0.0504275 22.9395 -0.0378414 22.6766 0.0101873C22.2807 0.0809322 18.7681 0.732565 17.276 1.8171C16.242 2.56739 15.7235 3.84794 15.4632 5.01166C14.2917 3.29301 13.1299 2.80753 12.9644 2.74588C12.5516 2.59141 12.1005 2.7991 11.9402 3.20734C11.7799 3.61558 11.9824 4.07965 12.3887 4.2471ZM18.221 3.11777C18.9343 2.59984 20.5101 2.14097 21.7199 1.85475C21.3934 3.00095 20.8794 4.48335 20.3005 5.21351C19.4347 6.30649 17.7855 6.60634 16.8405 6.68618C16.9326 5.52765 17.2701 3.8077 18.221 3.11777Z" fill="#1899D5"/>
</svg>
