<svg width="29" height="26" viewBox="0 0 29 26" fill="none" xmlns="http://www.w3.org/2000/svg">
<path d="M28.0632 16.0567C27.7734 13.9225 24.8959 12.3001 20.9729 12.0041L21.5832 11.3945C22.8234 10.1536 23.507 8.50477 23.507 6.75069C23.507 4.99593 22.8234 3.34639 21.5832 2.10618L21.3945 1.91746C18.834 -0.64306 14.6667 -0.64306 12.1055 1.91746L1.92379 12.0998C0.682897 13.34 0 14.9896 0 16.7437C0 18.4977 0.682897 20.1473 1.92379 21.3875L2.1125 21.5762C3.35339 22.8171 5.00225 23.5 6.75701 23.5C8.51109 23.5 10.16 22.8171 11.4008 21.5762L11.445 21.5321C12.2405 23.574 15.5118 25.0185 19.675 25.0185C24.475 25.0185 28.0945 23.1002 28.0945 20.5566V16.2766C28.0945 16.2006 28.0816 16.1273 28.0632 16.0567ZM26.3587 16.411C26.3587 17.6974 23.5002 19.1365 19.675 19.1365C15.8499 19.1365 12.9913 17.6974 12.9913 16.411C12.9913 15.1253 15.8499 13.6869 19.675 13.6869C19.8135 13.6869 19.9486 13.6923 20.0844 13.6964L17.9176 16.2081C17.6046 16.5705 17.6447 17.119 18.0078 17.432C18.1721 17.5732 18.3737 17.6431 18.5747 17.6431C18.8183 17.6431 19.0607 17.5406 19.2324 17.3417L21.9776 14.1594C22.0462 14.0799 22.095 13.9903 22.1297 13.8973C24.6583 14.342 26.3587 15.4206 26.3587 16.411ZM13.3335 3.14478C15.2179 1.26172 18.2828 1.26172 20.1665 3.14478L20.3552 3.33349C21.2682 4.24651 21.7706 5.45956 21.7706 6.75069C21.7706 8.04113 21.2682 9.25419 20.3552 10.1665L18.5984 11.924C18.5787 11.9437 18.5713 11.9695 18.5543 11.9905C16.8837 12.0985 15.3937 12.444 14.203 12.9694L8.85593 7.6223L13.3335 3.14478ZM10.1729 20.3489C9.26051 21.2619 8.04745 21.7642 6.75701 21.7642C5.46589 21.7642 4.25283 21.2619 3.33981 20.3489L3.1511 20.1602C2.23876 19.2472 1.73643 18.0348 1.73643 16.7437C1.73643 15.4525 2.23876 14.2401 3.1511 13.3271L7.62862 8.84961L12.658 13.879C11.7661 14.5897 11.2556 15.4559 11.2556 16.411C11.2556 16.4185 11.2569 16.4246 11.2576 16.4321C11.2569 16.4382 11.2556 16.4436 11.2556 16.4497V19.3082C11.2142 19.3374 11.168 19.3544 11.1314 19.3911L10.1729 20.3489ZM19.675 23.2821C15.8499 23.2821 12.9913 21.843 12.9913 20.5566V19.1833C14.5051 20.2233 16.8878 20.8729 19.675 20.8729C22.4623 20.8729 24.8449 20.2233 26.3587 19.1833V20.5566C26.3587 21.843 23.5002 23.2821 19.675 23.2821Z" fill="#1899D5"/>
</svg>
