<svg width="43" height="33" viewBox="0 0 43 33" fill="none" xmlns="http://www.w3.org/2000/svg">
<path d="M29 12.8558V30.0753C29 31.1331 28.1307 32 27.0698 32H11.9302C10.8693 32 10 31.1331 10 30.0753V12.8558C10 10.1818 12.1954 8 14.8771 8H24.1303C26.8119 8 29 10.1818 29 12.8558Z" stroke="#1899D5" stroke-width="1.5" stroke-linecap="round" stroke-linejoin="round"/>
<path d="M15 8H24V6H15V8Z" stroke="#1899D5" stroke-width="1.5" stroke-linecap="round" stroke-linejoin="round"/>
<path d="M14.0061 1H24.9939C26.0965 1 27 1.70588 27 2.57353V4.42647C27 5.29412 26.0965 6 24.9939 6H14.0061C12.9035 6 12 5.29412 12 4.42647V2.57353C12 1.70588 12.9035 1 14.0061 1Z" stroke="#1899D5" stroke-width="1.5" stroke-linecap="round" stroke-linejoin="round"/>
<path d="M17.8357 28H10V17H29V28H18.0787" stroke="#1899D5" stroke-width="1.5" stroke-linecap="round" stroke-linejoin="round"/>
<path d="M1 16V30.5278C1 31.3349 1.63434 32 2.41284 32H12" stroke="#1899D5" stroke-width="1.5" stroke-linecap="round" stroke-linejoin="round"/>
<path d="M28 31.9341C28.1702 31.978 28.3626 32 28.555 32H40.1353C41.1638 32 42 31.3553 42 30.5568V12H29.7389" stroke="#1899D5" stroke-width="1.5" stroke-linecap="round" stroke-linejoin="round"/>
<path d="M10 13H2.39557C1.62658 13 1 13.5919 1 14.3251V16H10" stroke="#1899D5" stroke-width="1.5" stroke-linecap="round" stroke-linejoin="round"/>
<path d="M29.4279 12H42V9.76681C42 8.7982 41.1351 8 40.088 8H28.214C27.7587 8 27.3338 8.15247 27 8.40359" stroke="#1899D5" stroke-width="1.5" stroke-linecap="round" stroke-linejoin="round"/>
<path d="M5 28H10V20H5V28Z" stroke="#1899D5" stroke-width="1.5" stroke-linecap="round" stroke-linejoin="round"/>
<path d="M33 22.6458V25H42V17H33V22.6458Z" stroke="#1899D5" stroke-width="1.5" stroke-linecap="round" stroke-linejoin="round"/>
<path d="M14 24H25M16.7775 21H22.2225" stroke="#1899D5" stroke-width="1.5" stroke-linecap="round" stroke-linejoin="round"/>
</svg>
