<svg width="12" height="12" viewBox="0 0 12 12" fill="none" xmlns="http://www.w3.org/2000/svg">
<path d="M5.99963 1.12544C6.96391 1.1253 7.90657 1.41111 8.7084 1.94675C9.51023 2.48238 10.1352 3.24377 10.5043 4.13462C10.8734 5.02547 10.97 6.00576 10.7819 6.95152C10.5938 7.89728 10.1295 8.76602 9.44763 9.44787C8.76578 10.1297 7.89705 10.594 6.95129 10.7821C6.00553 10.9702 5.02523 10.8736 4.13438 10.5045C3.24353 10.1354 2.48215 9.51047 1.94651 8.70864C1.41088 7.90681 1.12506 6.96414 1.12521 5.99986C1.12541 4.70715 1.63902 3.46743 2.55311 2.55335C3.4672 1.63926 4.70691 1.12564 5.99963 1.12544ZM5.99963 12.0002C7.18621 12.0002 8.34615 11.6484 9.33276 10.9892C10.3194 10.33 11.0884 9.39298 11.5425 8.29674C11.9966 7.20049 12.1155 5.9942 11.884 4.83041C11.6526 3.66662 11.0813 2.59759 10.2423 1.75849C9.40328 0.9194 8.33432 0.347933 7.17055 0.116351C6.00679 -0.11523 4.80049 0.00347642 3.70419 0.45746C2.60788 0.911443 1.67082 1.68031 1.01148 2.66685C0.352145 3.65339 0.000147521 4.81328 4.63419e-08 5.99986C-9.78837e-05 6.78781 0.155015 7.56805 0.45648 8.29605C0.757946 9.02404 1.19986 9.68552 1.75699 10.2427C2.31411 10.7999 2.97554 11.2419 3.7035 11.5435C4.43145 11.845 5.21168 12.0002 5.99963 12.0002ZM8.64972 4.89851C8.75543 4.79301 8.81489 4.64983 8.81503 4.50048C8.81517 4.35113 8.75597 4.20785 8.65047 4.10214C8.54496 3.99644 8.40179 3.93697 8.25244 3.93683C8.10309 3.93669 7.9598 3.99589 7.8541 4.1014L5.25247 6.70526L4.15038 5.60391C4.04497 5.4985 3.902 5.43929 3.75294 5.43929C3.60387 5.43929 3.4609 5.4985 3.3555 5.60391C3.25009 5.70932 3.19087 5.85228 3.19087 6.00135C3.19087 6.07516 3.20541 6.14825 3.23366 6.21644C3.2619 6.28464 3.3033 6.3466 3.3555 6.39879L4.85578 7.89907C4.90783 7.95151 4.96975 7.99313 5.03796 8.02153C5.10617 8.04994 5.17933 8.06456 5.25322 8.06456C5.3271 8.06456 5.40026 8.04994 5.46847 8.02153C5.53669 7.99313 5.5986 7.95151 5.65066 7.89907L8.64972 4.89851Z" fill="#22BE17"/>
</svg>
